<svg xmlns="http://www.w3.org/2000/svg" viewBox="0 0 898 218.47"><defs><style>.cls-1{fill:#00b0ff;}.cls-2{fill:#8aecff;}.cls-3{fill:#011f4b;}.cls-4{fill:#eaeaea;}.cls-5{fill:#30d5c8;}</style></defs><g id="Layer_2" data-name="Layer 2"><g id="Layer_1-2" data-name="Layer 1"><rect class="cls-1" width="898" height="218.47"/><rect class="cls-2" x="3.38" y="3.8" width="891.24" height="210.87"/><path class="cls-3" d="M252.51,92.22A16.58,16.58,0,0,0,246,93.55L245,94l1.65,3.78,1-.41a12.84,12.84,0,0,1,4.85-1,12,12,0,0,1,8.75,3.67,11.81,11.81,0,0,1,3.75,8.83,12.2,12.2,0,0,1-3.61,8.79,11.84,11.84,0,0,1-8.89,3.71,12.58,12.58,0,0,1-8.71-3.52,11.3,11.3,0,0,1-3.79-8.6V80.91h-4.14v28a16.44,16.44,0,0,0,4.74,11.66,15.94,15.94,0,0,0,11.9,5,16.24,16.24,0,0,0,11.6-4.73,15.82,15.82,0,0,0,5-11.91,16.14,16.14,0,0,0-4.84-11.66A15.85,15.85,0,0,0,252.51,92.22Z"/><path class="cls-3" d="M281.6,107.83h24.95l-.2-1.3a16.24,16.24,0,0,0-5.6-10.15,16.55,16.55,0,0,0-27.39,12.53,16.66,16.66,0,0,0,16.58,16.59c4.53,0,8.67-1.85,12.32-5.5l.83-.83L300,116.29l-.76.87a11.73,11.73,0,0,1-9.28,4.2,12.48,12.48,0,0,1-12.44-12.45,13,13,0,0,1,12.44-12.44,12.12,12.12,0,0,1,7.32,2.43,11.82,11.82,0,0,1,4,4.74H281.6Z"/><path class="cls-3" d="M325.71,92.28a16.06,16.06,0,0,0-11.85,5,16.31,16.31,0,0,0-4.79,11.66,15.81,15.81,0,0,0,5,11.91,16.51,16.51,0,0,0,18.06,3.4l1.06-.44L331.58,120l-1,.42a13.06,13.06,0,0,1-4.85,1,11.81,11.81,0,0,1-8.93-3.74,12.3,12.3,0,0,1-3.57-8.76A11.57,11.57,0,0,1,317,100a12.37,12.37,0,0,1,17.45,0,11.2,11.2,0,0,1,3.8,8.55V125h4.13v-16a15.8,15.8,0,0,0-5-11.9A16.24,16.24,0,0,0,325.71,92.28Z"/><path class="cls-3" d="M376.18,92.28a11.85,11.85,0,0,0-9.36,4.63,11.83,11.83,0,0,0-9.38-4.63,11.62,11.62,0,0,0-8.26,3.32,10.7,10.7,0,0,0-3.48,8V125H350V104.07a7.41,7.41,0,0,1,2.23-5.37,6.86,6.86,0,0,1,5.26-2.29,7.64,7.64,0,0,1,7.22,5.36V125h4.25v-23.2a7.75,7.75,0,0,1,7.27-5.35,6.8,6.8,0,0,1,5.21,2.23,7.58,7.58,0,0,1,2.12,5.43V125h4.25V103.64a10.73,10.73,0,0,0-3.53-8A11.41,11.41,0,0,0,376.18,92.28Z"/><path class="cls-3" d="M422.52,92.28A16.42,16.42,0,0,0,410.93,97a15.59,15.59,0,0,0-5.05,11.87,16.65,16.65,0,0,0,4.68,11.66,16,16,0,0,0,12,5,16.69,16.69,0,0,0,6.35-1.27l1.07-.44-1.66-3.8-1,.43A12.49,12.49,0,0,1,410,108.86a12.17,12.17,0,0,1,3.57-8.65,11.69,11.69,0,0,1,8.93-3.8,12.4,12.4,0,0,1,8.71,3.64,11.53,11.53,0,0,1,3.84,8.81v12a12.54,12.54,0,0,1-21.5,8.85l-.81-.82-2.86,3,.78.78a16.54,16.54,0,0,0,23.5.12,16,16,0,0,0,5-11.91v-12a16.66,16.66,0,0,0-16.64-16.58Z"/><rect class="cls-3" x="444.13" y="80.91" width="4.3" height="44.04"/><path class="cls-3" d="M468.37,92.28a16.64,16.64,0,0,0-16.58,16.58,16.58,16.58,0,0,0,16.58,16.58,16.51,16.51,0,0,0,11.69-28.25A15.87,15.87,0,0,0,468.37,92.28Zm8.79,25.37a12.41,12.41,0,1,1-8.79-21.24,11.68,11.68,0,0,1,8.73,3.71h0a11.89,11.89,0,0,1,3.71,8.74A12,12,0,0,1,477.16,117.65Z"/><path class="cls-3" d="M505.38,92.22a16.58,16.58,0,0,0-6.47,1.33l-1.06.44,1.66,3.78,1-.41a12.84,12.84,0,0,1,4.85-1,12,12,0,0,1,8.75,3.67,11.81,11.81,0,0,1,3.75,8.83,12.2,12.2,0,0,1-3.61,8.79,11.84,11.84,0,0,1-8.89,3.71,12.56,12.56,0,0,1-8.71-3.52,11.3,11.3,0,0,1-3.79-8.6V80.91h-4.14v28a16.49,16.49,0,0,0,4.73,11.66,16,16,0,0,0,11.91,5,16.25,16.25,0,0,0,11.6-4.73,15.82,15.82,0,0,0,5-11.91,16.18,16.18,0,0,0-4.84-11.66A15.85,15.85,0,0,0,505.38,92.22Z"/><path class="cls-3" d="M542.86,92.28a16.07,16.07,0,0,0-11.85,5,16.36,16.36,0,0,0-4.78,11.66,15.8,15.8,0,0,0,5,11.91,16.53,16.53,0,0,0,18.07,3.4l1.06-.44L548.73,120l-1,.42a13.11,13.11,0,0,1-4.86,1,11.77,11.77,0,0,1-8.92-3.74,12.26,12.26,0,0,1-3.57-8.76,11.59,11.59,0,0,1,3.74-8.88,12.39,12.39,0,0,1,17.46,0,11.24,11.24,0,0,1,3.79,8.55V125h4.14v-16a15.81,15.81,0,0,0-5-11.9A16.22,16.22,0,0,0,542.86,92.28Z"/><rect class="cls-3" x="563.94" y="80.91" width="4.3" height="44.04"/><path class="cls-3" d="M596.6,98.34a11.86,11.86,0,0,1,6.45-1.93,12.51,12.51,0,0,1,10.37,5.65l.63.93,3.48-2.32-.61-.93a16.66,16.66,0,0,0-13.87-7.46,16,16,0,0,0-9.61,3.07,17.31,17.31,0,0,0-5.93,7.78l-.38,1,26.42,11.55a12.38,12.38,0,0,1-10.5,5.68,12.6,12.6,0,0,1-7-2.08,11.66,11.66,0,0,1-4.58-5.51l-.4-1-3.89,1.41.43,1.08a15.48,15.48,0,0,0,7.72,8.38,20.28,20.28,0,0,0,7.7,1.87,15.84,15.84,0,0,0,9.49-3,17.41,17.41,0,0,0,6.15-7.88l.41-1-26.42-11.47A11.57,11.57,0,0,1,596.6,98.34Z"/><path class="cls-3" d="M631.22,107.83h25l-.2-1.3a16.24,16.24,0,0,0-5.6-10.15A16.56,16.56,0,0,0,623,108.91a16.68,16.68,0,0,0,16.59,16.59c4.53,0,8.67-1.85,12.32-5.5l.83-.83-3.11-2.88-.76.87a11.75,11.75,0,0,1-9.28,4.2,12.5,12.5,0,0,1-12.45-12.45,13,13,0,0,1,12.45-12.44,12.09,12.09,0,0,1,7.31,2.43,11.77,11.77,0,0,1,4,4.74H631.22Z"/><path class="cls-3" d="M664.82,96.94a15.65,15.65,0,0,0-5.05,11.92V125h4.14v-16.1a12.58,12.58,0,0,1,12.45-12.5h1.12V92.22h-1.12A16.33,16.33,0,0,0,664.82,96.94Z"/><polygon class="cls-3" points="698.05 118.12 685.39 92.76 680.65 92.76 697.99 126.96 715.45 92.76 710.65 92.76 698.05 118.12"/><rect class="cls-3" x="720.45" y="80.91" width="4.3" height="8.99"/><rect class="cls-3" x="720.45" y="92.76" width="4.3" height="32.2"/><path class="cls-3" d="M755.36,117.22a11.77,11.77,0,0,1-9.22,4.14,12,12,0,0,1-8.78-3.66,11.77,11.77,0,0,1-3.61-8.73,11.89,11.89,0,0,1,3.67-8.69,11.67,11.67,0,0,1,8.72-3.7c3.32,0,6.46,1.43,9.34,4.25l.75.74,3-2.65-.67-.84a16.15,16.15,0,0,0-12.41-5.64,16.53,16.53,0,0,0,0,33.06,17,17,0,0,0,12.27-5.45l.83-.83-3.11-2.87Z"/><path class="cls-3" d="M771.24,107.83h25l-.2-1.3a16.24,16.24,0,0,0-5.6-10.15A16.55,16.55,0,0,0,763,108.91a16.66,16.66,0,0,0,16.58,16.59c4.53,0,8.67-1.85,12.32-5.5l.83-.83-3.11-2.88-.76.87a11.75,11.75,0,0,1-9.28,4.2,12.48,12.48,0,0,1-12.44-12.45,13,13,0,0,1,12.44-12.44,12.14,12.14,0,0,1,7.32,2.43,11.82,11.82,0,0,1,4,4.74H771.24Z"/><path class="cls-3" d="M805.46,102.12a11.75,11.75,0,0,1,3.92-3.78,11.91,11.91,0,0,1,6.46-1.93,12.52,12.52,0,0,1,10.37,5.65l.63.93,3.47-2.32-.61-.93a16.64,16.64,0,0,0-13.86-7.46,16,16,0,0,0-9.62,3.07,17.28,17.28,0,0,0-5.92,7.78l-.39,1,26.42,11.55a12.37,12.37,0,0,1-10.49,5.68,12.6,12.6,0,0,1-7-2.08,11.54,11.54,0,0,1-4.58-5.51l-.41-1L800,114.17l.43,1.08a15.52,15.52,0,0,0,7.72,8.38,20.28,20.28,0,0,0,7.71,1.87,15.81,15.81,0,0,0,9.48-3,17.36,17.36,0,0,0,6.16-7.88l.41-1Z"/><rect class="cls-4" x="12.93" y="14.28" width="160.21" height="189.92"/><path class="cls-1" d="M134.23,123.24a44.39,44.39,0,0,1-.81,8.59c-.15.75-.32,1.5-.53,2.24a38.42,38.42,0,0,1-11.12,18.66,41.87,41.87,0,0,1-9.45,7A39.86,39.86,0,0,1,93,164.44a39.52,39.52,0,0,1-29.49-12.32c-.22-.24-.45-.48-.66-.72a40.71,40.71,0,0,1-11.05-28.16V54H62.08v70.15a27.58,27.58,0,0,0,8.06,20c.42.45.87.9,1.34,1.33A31,31,0,0,0,93,154.19a30.22,30.22,0,0,0,14.45-3.41,32.64,32.64,0,0,0,14.62-16.71,29.84,29.84,0,0,0,1.2-4.18,31.38,31.38,0,0,0,.68-6.65,29.36,29.36,0,0,0-9.27-21.87C108.45,95.26,101.37,92.3,93,92.3a32,32,0,0,0-12,2.45l-2.51,1-4.11-9.35L77,85.32A40.89,40.89,0,0,1,93,82a39.2,39.2,0,0,1,29.22,12.31A40.11,40.11,0,0,1,134.23,123.24Z"/><path class="cls-5" d="M112.32,159.68A39.86,39.86,0,0,1,93,164.44a39.52,39.52,0,0,1-29.49-12.32c-.22-.24-.45-.48-.66-.72a40.71,40.71,0,0,1-11.05-28.16V54H62.08v70.15a27.58,27.58,0,0,0,8.06,20c.42.45.87.9,1.34,1.33A31,31,0,0,0,93,154.19a30.22,30.22,0,0,0,14.45-3.41Z"/></g></g></svg>